<svg xmlns="http://www.w3.org/2000/svg" xmlns:xlink="http://www.w3.org/1999/xlink" viewBox="0 0 89.83 82.6"><defs><style>.cls-1{fill:none;}.cls-2{clip-path:url(#clip-path);}.cls-3{fill:#fff;}</style><clipPath id="clip-path" transform="translate(-4.17 -7.15)"><path class="cls-1" d="M5.59,0H86.92A7.08,7.08,0,0,1,94,7.08V91.31A5.59,5.59,0,0,1,88.4,96.9H5.59A5.59,5.59,0,0,1,0,91.31V5.59A5.59,5.59,0,0,1,5.59,0Z"/></clipPath></defs><g id="Layer_2" data-name="Layer 2"><g id="Image"><g class="cls-2"><path class="cls-3" d="M4.17,89.75V7.15H94v82.6ZM61.66,59.82c.52-1.45,1-2.8,1.49-4.11,1.73-4.33,3.53-8.63,5.24-13a42.5,42.5,0,0,0,3.09-11.29,8.85,8.85,0,0,0-.65-4.92,1.17,1.17,0,0,0-1-.75c-1.7-.23-3.39-.53-5.09-.68a33.21,33.21,0,0,0-10.33.62A24.36,24.36,0,0,0,40.25,35a64.7,64.7,0,0,0-7.11,12.34.71.71,0,0,0,0,.24c.75.08,1.48.13,2.2.23a28.94,28.94,0,0,1,8.83,2.77c4.22,2.1,8.37,4.36,12.54,6.55ZM11.44,56.27C12.69,57.16,14,58,15.2,59c2.56,2.21,5,4.6,7.75,6.58a83.23,83.23,0,0,0,7.28,5A25.72,25.72,0,0,0,41,73.85,31.66,31.66,0,0,0,52,72.6a70.28,70.28,0,0,0,17.06-7.77,1.77,1.77,0,0,0,.21-.2,71.82,71.82,0,0,1-9.67-4.31C55,58,50.35,55.49,45.67,53.2a34.19,34.19,0,0,0-11.44-3.69,8.43,8.43,0,0,0-3.4.12c-5.94,1.94-11.83,4-17.74,6ZM72.78,26.75a14.79,14.79,0,0,1,0,7,55.66,55.66,0,0,1-2.86,9.62c-1.82,4.7-3.72,9.37-5.57,14.06-.4,1-.73,2-1.13,3.1,1.79.7,3.47,1.46,5.22,2,6.18,1.94,12.38,3.81,18.57,5.71l.85.24c0-.1.08-.13.09-.16a101.64,101.64,0,0,0,1.57-11,44.22,44.22,0,0,0-.46-12.21,22.78,22.78,0,0,0-7.92-13.72A29.7,29.7,0,0,0,72.78,26.75ZM20,65.6c-.06-.1-.07-.16-.11-.19C18,63.69,16.06,62,14.13,60.25A11.23,11.23,0,0,0,10,57.71c-.89-.27-.89-.27-1.21.6A6,6,0,0,0,12.86,66,12.87,12.87,0,0,0,20,65.6ZM72.59,24.83a2,2,0,0,0-1.41-1.78,2.32,2.32,0,0,0-2.4.79Z" transform="translate(-4.17 -7.15)"/><path d="M61.66,59.82l-5-2.65C52.5,55,48.35,52.72,44.13,50.62a28.94,28.94,0,0,0-8.83-2.77c-.72-.1-1.45-.15-2.2-.23a.71.71,0,0,1,0-.24A64.7,64.7,0,0,1,40.25,35a24.36,24.36,0,0,1,14.19-9.32,33.21,33.21,0,0,1,10.33-.62c1.7.15,3.39.45,5.09.68a1.17,1.17,0,0,1,1,.75,8.85,8.85,0,0,1,.65,4.92,42.5,42.5,0,0,1-3.09,11.29c-1.71,4.34-3.51,8.64-5.24,13C62.62,57,62.18,58.37,61.66,59.82Z" transform="translate(-4.17 -7.15)"/><path d="M11.44,56.27l1.65-.59c5.91-2,11.8-4.11,17.74-6a8.43,8.43,0,0,1,3.4-.12A34.19,34.19,0,0,1,45.67,53.2C50.35,55.49,55,58,59.59,60.32a71.82,71.82,0,0,0,9.67,4.31,1.77,1.77,0,0,1-.21.2A70.28,70.28,0,0,1,52,72.6a31.66,31.66,0,0,1-11,1.25,25.72,25.72,0,0,1-10.73-3.31,83.23,83.23,0,0,1-7.28-5c-2.78-2-5.19-4.37-7.75-6.58C14,58,12.69,57.16,11.44,56.27Z" transform="translate(-4.17 -7.15)"/><path d="M72.78,26.75a29.7,29.7,0,0,1,8.36,4.71,22.78,22.78,0,0,1,7.92,13.72,44.22,44.22,0,0,1,.46,12.21,101.64,101.64,0,0,1-1.57,11s0,.06-.09.16L87,68.28c-6.19-1.9-12.39-3.77-18.57-5.71-1.75-.55-3.43-1.31-5.22-2,.4-1.09.73-2.11,1.13-3.1,1.85-4.69,3.75-9.36,5.57-14.06a55.66,55.66,0,0,0,2.86-9.62A14.79,14.79,0,0,0,72.78,26.75Z" transform="translate(-4.17 -7.15)"/><path d="M20,65.6a12.87,12.87,0,0,1-7.11.36,6,6,0,0,1-4.1-7.65c.32-.87.32-.87,1.21-.6a11.23,11.23,0,0,1,4.16,2.54c1.93,1.7,3.82,3.44,5.73,5.16C19.9,65.44,19.91,65.5,20,65.6Z" transform="translate(-4.17 -7.15)"/><path d="M72.59,24.83l-3.81-1a2.32,2.32,0,0,1,2.4-.79A2,2,0,0,1,72.59,24.83Z" transform="translate(-4.17 -7.15)"/></g></g></g></svg>